<svg version="1.0" xmlns="http://www.w3.org/2000/svg"
 width="50.000000pt" height="50.000000pt" viewBox="0 0 120.000000 111.000000"
 preserveAspectRatio="xMidYMid meet">
<g transform="translate(0.000000,111.000000) scale(0.100000,-0.100000)"
fill="#000000" stroke="none">
<path d="M443 1010 c-255 -90 -377 -407 -252 -653 34 -66 141 -170 214 -207
174 -88 389 -54 536 87 146 139 183 354 94 541 -72 152 -239 265 -360 243
l-40 -7 50 -7 c159 -22 309 -162 351 -327 47 -185 -30 -374 -197 -481 -68 -43
-130 -60 -225 -60 -97 0 -122 5 -194 42 -217 107 -305 369 -199 587 60 123
174 207 322 238 39 9 74 17 76 20 13 13 -132 0 -176 -16z"/>
<path d="M478 951 c-72 -29 -112 -57 -167 -116 -178 -195 -109 -512 137 -628
60 -28 77 -32 157 -32 120 0 195 28 276 103 170 157 177 414 14 577 -29 29
-79 65 -112 81 -78 37 -231 45 -305 15z m275 -41 c75 -28 158 -108 195 -187
23 -50 27 -71 27 -153 0 -84 -3 -102 -28 -152 -54 -109 -157 -187 -278 -209
-197 -35 -391 110 -420 315 -25 181 97 360 278 406 57 14 161 5 226 -20z"/>
<path d="M607 843 c-4 -3 -7 -23 -7 -42 0 -33 -4 -38 -42 -56 -32 -15 -46 -28
-54 -54 -24 -75 15 -126 103 -133 84 -7 117 -56 74 -109 -17 -21 -30 -25 -100
-29 -92 -6 -113 -23 -33 -28 l52 -3 0 -45 c0 -32 4 -44 15 -44 11 0 15 12 15
45 0 39 3 45 21 45 11 0 34 13 50 29 31 31 39 83 19 122 -15 27 -63 49 -110
49 -48 0 -80 27 -80 68 0 47 25 61 115 64 63 2 80 6 80 18 0 11 -13 16 -47 18
l-48 3 0 45 c0 41 -7 53 -23 37z"/>
</g>
</svg>
